<?xml version="1.0" encoding="UTF-8" standalone="no"?>
<svg
   id="Layer_1"
   height="512"
   viewBox="0 0 24 24"
   width="512"
   data-name="Layer 1"
   version="1.1"
   sodipodi:docname="icon.svg"
   inkscape:export-filename="icon-tr.png"
   inkscape:export-xdpi="96"
   inkscape:export-ydpi="96"
   inkscape:version="1.3.2 (091e20ef0f, 2023-11-25)"
   xmlns:inkscape="http://www.inkscape.org/namespaces/inkscape"
   xmlns:sodipodi="http://sodipodi.sourceforge.net/DTD/sodipodi-0.dtd"
   xmlns="http://www.w3.org/2000/svg"
   xmlns:svg="http://www.w3.org/2000/svg">
  <defs
     id="defs1" />
  <sodipodi:namedview
     id="namedview1"
     pagecolor="#ffffff"
     bordercolor="#000000"
     borderopacity="0.25"
     inkscape:showpageshadow="2"
     inkscape:pageopacity="0.0"
     inkscape:pagecheckerboard="0"
     inkscape:deskcolor="#d1d1d1"
     inkscape:zoom="1.21875"
     inkscape:cx="255.58974"
     inkscape:cy="256"
     inkscape:window-width="1600"
     inkscape:window-height="824"
     inkscape:window-x="0"
     inkscape:window-y="0"
     inkscape:window-maximized="1"
     inkscape:current-layer="Layer_1" />
  <circle
     style="fill:#ffffff;stroke:#ffffff;stroke-width:0.132828;fill-opacity:1;stroke-opacity:0"
     id="path2"
     cx="12"
     cy="12"
     r="11.933586" />
  <path
     d="M 14.66668,5.3333 H 14.552679 A 2.00401,2.00401 0 0 0 12.66667,3.99996 H 11.33333 A 2.00401,2.00401 0 0 0 9.4473206,5.3333 H 9.33332 A 3.33735,3.33735 0 0 0 5.99997,8.66665 v 8.00004 a 3.33735,3.33735 0 0 0 3.33335,3.33335 h 5.33336 a 3.33735,3.33735 0 0 0 3.33335,-3.33335 V 8.66665 A 3.33735,3.33735 0 0 0 14.66668,5.3333 Z M 9.99999,8.66665 h 1.33334 V 7.33331 a 0.66667,0.66667 0 0 1 1.33334,0 v 1.33334 h 1.33334 a 0.66667,0.66667 0 0 1 0,1.33334 h -1.33334 v 1.33334 a 0.66667,0.66667 0 0 1 -1.33334,0 V 9.99999 H 9.99999 a 0.66667,0.66667 0 0 1 0,-1.33334 z M 12,17.33336 H 9.33332 a 0.66667,0.66667 0 0 1 0,-1.33334 H 12 a 0.66667,0.66667 0 0 1 0,1.33334 z m 2.66668,-2.66668 H 9.33332 a 0.66667,0.66667 0 0 1 0,-1.33334 h 5.33336 a 0.66667,0.66667 0 0 1 0,1.33334 z"
     id="path1"
     style="stroke-width:0.66667" />
</svg>
